<?xml version="1.0" encoding="utf-8"?>
<!-- Generator: Adobe Illustrator 27.9.0, SVG Export Plug-In . SVG Version: 6.00 Build 0)  -->
<svg version="1.1" xmlns="http://www.w3.org/2000/svg" xmlns:xlink="http://www.w3.org/1999/xlink" x="0px" y="0px"
	 viewBox="0 0 157.3 41.9" style="enable-background:new 0 0 157.3 41.9;" xml:space="preserve">
<style type="text/css">
	.st0{display:none;}
	.st1{display:inline;fill:#1ED367;}
	.st2{display:inline;fill:#FFFFFF;}
	.st3{display:inline;}
	.st4{fill:#1ED367;}
	.st5{fill:#FFFFFF;}
</style>
<g id="Layer_1" class="st0">
	<path class="st1" d="M41.9,20.9c0,11.6-9.4,20.9-20.9,20.9S0,32.5,0,20.9C0,9.4,9.4,0,20.9,0C32.5,0,41.9,9.4,41.9,20.9"/>
	<path class="st2" d="M31.2,20.4c0.4,1.3-0.9,2-1.8,2.6c-1,0.6-2,1-3.1,1.4c-2.1,0.7-4.3,1.1-6.4,2c-1.7,0.7-3.3,1.8-3.9,3.6
		c-0.4,1.2,0,2.5,1,3.2c2.3,1.6,5.9,0.8,7.3-1.6c1.1-1.8,0.7-4.1,0-5.9c-0.9-2.6-2.4-4.9-3.5-7.3c-1-2.1-2.4-5-1.8-7.4
		c0.3-1,1.3-1.7,2.3-1.8c1.4-0.1,1.6,1.3,1.4,2.4c-0.4,2.7-3,5.2-5.5,5.9c-1.9,0.5-4.9,0.2-5.5-2c-0.2-0.8-1.5-0.5-1.2,0.3
		c1.1,4,6.7,3.6,9.4,1.8c2.1-1.3,3.7-3.5,4.1-6c0.2-1.7-0.4-3.6-2.4-3.7c-1.8-0.1-3.4,1.1-4,2.7c-0.7,2,0.4,4.7,1.1,6.5
		c1,2.4,2.3,4.5,3.4,6.8c1,2,2.1,4.8,0.9,6.9c-0.9,1.7-3.3,2.1-4.9,1.4c-2.4-0.9-0.4-3.4,1-4.2c2.5-1.5,5.6-1.9,8.3-2.9
		c2.1-0.7,5.8-2.5,4.9-5.2C32.2,19.3,31,19.6,31.2,20.4"/>
	<g class="st3">
		<path d="M54.7,29.2c-0.5,0-1.1-0.1-1.7-0.3c-0.6-0.2-1.3-0.5-2-0.8c-0.7-0.3-1.3-0.6-2-0.8c-0.4,0.4-0.7,0.7-1.1,0.9
			c-0.4,0.2-0.8,0.3-1.3,0.3c-0.5,0-0.9-0.1-1.3-0.3c-0.4-0.2-0.6-0.5-0.8-0.8s-0.3-0.6-0.3-0.8c0-0.3,0.1-0.5,0.4-0.7
			s0.7-0.3,1.3-0.3c0.4,0,0.8,0,1.2,0.1s0.9,0.2,1.4,0.3c0.3-0.6,0.6-1.2,0.9-2s0.5-1.5,0.8-2.4c0.3-0.8,0.5-1.6,0.8-2.4
			c-0.7-0.2-1.2-0.6-1.6-1c-0.4-0.4-0.6-0.9-0.6-1.3c0-0.3,0.1-0.6,0.2-0.8c0.1-0.3,0.3-0.5,0.6-0.7c0.3-0.2,0.6-0.3,0.9-0.3
			c-0.2,0.2-0.3,0.5-0.3,0.8c0,0.3-0.1,0.5-0.1,0.7c0,0.5,0.1,0.9,0.3,1.2s0.5,0.6,0.8,0.8c0.3-0.8,0.5-1.6,0.9-2.3
			c0.3-0.7,0.6-1.4,1-2c0.4-0.6,0.8-1,1.2-1.4c0.5-0.3,1-0.5,1.5-0.5c0.3,0,0.7,0.1,1,0.2c0.4,0.1,0.7,0.4,0.9,0.7
			c0.3,0.3,0.4,0.8,0.4,1.4c0,0.5-0.1,1-0.3,1.5s-0.5,1.1-1,1.6c-0.4,0.5-1,0.9-1.7,1.2s-1.5,0.5-2.5,0.5c0,0-0.1,0-0.1,0
			c0,0-0.1,0-0.1,0c-0.3,0.8-0.5,1.6-0.8,2.5c-0.3,0.8-0.6,1.6-0.9,2.4c-0.3,0.8-0.7,1.4-1.1,2c0.5,0.2,1.2,0.3,1.8,0.5
			c0.7,0.2,1.3,0.4,2,0.5c0.7,0.1,1.2,0.2,1.8,0.2c0.3,0,0.6,0,0.9-0.1c0.3-0.1,0.6-0.2,0.9-0.3c-0.3,0.8-0.6,1.3-1,1.7
			C55.7,29.1,55.3,29.2,54.7,29.2z M46.3,27.7c0.4,0,0.7-0.1,0.9-0.2c0.2-0.2,0.4-0.4,0.7-0.6c-0.4-0.2-0.8-0.3-1.2-0.4
			c-0.4-0.1-0.7-0.2-1-0.2c-0.3,0-0.5,0-0.6,0.1c-0.1,0.1-0.2,0.2-0.2,0.4c0,0.2,0.1,0.4,0.4,0.6C45.6,27.7,45.9,27.7,46.3,27.7z
			 M52.9,18.7c0.6,0,1.2-0.2,1.6-0.6s0.9-0.8,1.2-1.3c0.3-0.5,0.6-1,0.8-1.5c0.2-0.5,0.3-1,0.3-1.3c0-0.4-0.1-0.6-0.2-0.7
			c-0.1-0.1-0.3-0.2-0.5-0.2c-0.4,0-0.8,0.3-1.2,0.8c-0.4,0.5-0.7,1.2-1,2C53.6,16.8,53.2,17.7,52.9,18.7z"/>
		<path d="M59.7,28c-0.6,0-1.1-0.2-1.4-0.5s-0.5-0.8-0.5-1.3c0-0.3,0.1-0.7,0.2-1.2s0.3-1,0.5-1.5c0.2-0.5,0.4-1,0.7-1.5
			c0.3-0.5,0.6-0.9,0.9-1.2c0.3-0.3,0.6-0.5,0.9-0.5c0.2,0,0.3,0.1,0.4,0.2c0.1,0.1,0.2,0.3,0.2,0.5c0,0.2-0.1,0.5-0.3,0.8
			c-0.2,0.4-0.5,0.8-0.8,1.3c-0.3,0.5-0.5,1-0.8,1.5c-0.2,0.5-0.3,1-0.3,1.5c0,0.4,0.1,0.7,0.2,0.9c0.2,0.1,0.4,0.2,0.7,0.2
			c0.5,0,1-0.2,1.6-0.7c0.6-0.5,1.1-1.3,1.7-2.5l0.3,0.3c-0.5,1.2-1.1,2.2-1.9,2.9C61.4,27.7,60.6,28,59.7,28z M62.2,18.6
			c-0.3,0-0.5-0.1-0.7-0.2c-0.2-0.1-0.3-0.3-0.3-0.6c0-0.3,0.2-0.6,0.5-0.9c0.4-0.2,0.7-0.4,1.1-0.4c0.3,0,0.5,0.1,0.6,0.2
			c0.2,0.1,0.3,0.3,0.3,0.6s-0.2,0.6-0.5,0.8C62.9,18.4,62.6,18.6,62.2,18.6z"/>
		<path d="M64.3,28.4c-0.5,0-0.9-0.2-1.2-0.5c-0.3-0.3-0.5-0.8-0.5-1.4c0-0.5,0.1-1,0.3-1.6s0.5-1.1,0.9-1.7
			c0.4-0.6,0.8-1.1,1.3-1.5s1-0.8,1.6-1.1c0.6-0.3,1.1-0.4,1.7-0.4c0.6,0,1.1,0.2,1.5,0.5c0.4,0.3,0.6,0.7,0.6,1.2
			c0,0.4-0.1,0.7-0.4,0.8c-0.3,0.2-0.6,0.2-0.9,0.1c0-0.1,0.1-0.3,0.1-0.4s0-0.3,0-0.4c0-0.3-0.1-0.5-0.2-0.8S69,21,68.6,21
			c-0.4,0-0.8,0.1-1.2,0.4c-0.4,0.3-0.8,0.6-1.2,1c-0.4,0.4-0.7,0.9-1,1.4c-0.3,0.5-0.5,1-0.7,1.5c-0.2,0.5-0.3,0.9-0.3,1.3
			c0,0.4,0.2,0.7,0.5,0.7c0.3,0,0.7-0.2,1.1-0.5c0.4-0.3,0.8-0.7,1.2-1.2c0.4-0.5,0.8-1,1.1-1.5c0.4-0.5,0.7-0.9,0.9-1.3
			c0-0.1,0.1-0.1,0.2-0.1c0.1,0,0.2,0,0.3,0.1c0.2,0,0.3,0.1,0.5,0.2c0.1,0.1,0.2,0.2,0.2,0.4c0,0.1-0.1,0.3-0.2,0.5
			c-0.1,0.2-0.3,0.5-0.4,0.7c-0.2,0.3-0.3,0.5-0.4,0.8c-0.1,0.3-0.2,0.5-0.2,0.7c0,0.2,0,0.4,0.1,0.5s0.3,0.2,0.5,0.2
			c0.3,0,0.8-0.2,1.4-0.7c0.6-0.5,1.2-1.3,1.9-2.5l0.4,0.4c-0.3,0.8-0.7,1.4-1.2,2c-0.5,0.6-1,1-1.5,1.4c-0.5,0.3-1,0.5-1.6,0.5
			c-0.6,0-1-0.2-1.3-0.5c-0.3-0.4-0.4-0.8-0.5-1.2c0,0,0,0,0-0.1c0,0,0,0,0,0c-0.6,0.7-1.1,1.2-1.5,1.6
			C65.4,28.2,64.9,28.4,64.3,28.4z"/>
		<path d="M74.4,28.4c-0.6,0-1.1-0.2-1.5-0.5s-0.6-0.9-0.6-1.7c0-0.6,0.1-1.3,0.3-2.1c0.2-0.9,0.5-1.7,0.8-2.6
			c-0.1,0-0.2-0.1-0.3-0.1c-0.1,0-0.3-0.1-0.4-0.1v-0.7c0.2,0,0.4,0,0.6,0.1s0.3,0,0.5,0c0.3-0.7,0.6-1.5,1-2.2
			c0.3-0.7,0.7-1.3,1-1.9c0.3-0.5,0.7-1,1-1.3c0.3-0.3,0.6-0.5,0.8-0.5c0.1,0,0.3,0.1,0.4,0.2c0.1,0.1,0.2,0.3,0.2,0.5
			c0,0.3-0.1,0.7-0.4,1.2c-0.3,0.5-0.6,1.1-1.1,1.8c-0.4,0.7-0.8,1.4-1.2,2.2c0.1,0,0.2,0,0.3,0c0.1,0,0.2,0,0.3,0
			c0.6,0,1.2,0,1.7,0c0.5,0,1-0.1,1.5-0.1v0.7c-0.8,0.1-1.5,0.1-2.1,0.2c-0.6,0-1.3,0.1-1.8,0.1c0,0-0.1,0-0.1,0s-0.1,0-0.1,0
			c-0.3,0.7-0.5,1.4-0.8,2.1C74.1,24.3,74,25,74,25.7c0,0.6,0.1,1,0.3,1.2c0.2,0.2,0.5,0.4,0.9,0.4c0.7,0,1.4-0.3,2.2-1
			c0.7-0.6,1.4-1.5,1.9-2.6l0.3,0.2c-0.4,0.8-0.8,1.6-1.4,2.2c-0.5,0.7-1.1,1.2-1.8,1.6C75.7,28.2,75.1,28.4,74.4,28.4z"/>
		<path d="M83.9,29.2c0.1-0.2,0.3-0.7,0.6-1.4c0.3-0.7,0.8-1.8,1.4-3s1.3-2.7,2.1-4.5c0.8-1.7,1.7-3.7,2.7-5.8
			c0.1-0.1,0.1-0.2,0.1-0.4s0.1-0.2,0.1-0.3c0-0.1,0-0.3-0.1-0.3s-0.2-0.1-0.5-0.1c-0.6,0-1.1,0.2-1.4,0.5c-0.4,0.4-0.6,0.8-0.8,1.3
			c-0.2,0.5-0.3,1-0.3,1.5c0,0.1,0,0.3,0,0.4s0,0.4,0.1,0.6c-0.3,0-0.6-0.1-0.8-0.3c-0.2-0.2-0.4-0.5-0.5-0.8
			c-0.1-0.3-0.2-0.6-0.2-0.9c0-0.4,0.1-0.9,0.4-1.3c0.3-0.4,0.6-0.8,1-1.1c0.4-0.3,0.9-0.6,1.4-0.8c0.5-0.2,1-0.3,1.5-0.3
			c0.5,0,1,0.1,1.3,0.4c0.4,0.3,0.6,0.8,0.8,1.6c0.2,0.7,0.3,1.8,0.3,3.2c0,0.9,0,1.8-0.1,2.8c-0.1,0.9-0.1,1.8-0.2,2.6
			c-0.1,0.8-0.1,1.5-0.1,2.1c0.3-0.8,0.6-1.7,1-2.6c0.4-0.9,0.9-1.9,1.3-2.8s0.9-1.8,1.4-2.6c0.5-0.8,0.9-1.5,1.2-2.1
			c0.4-0.6,0.7-1.1,0.9-1.4c0.2-0.3,0.4-0.5,0.5-0.7c0.2-0.2,0.4-0.2,0.6-0.2c0.2,0,0.5,0.1,0.9,0.2c-0.1,0.3-0.3,0.7-0.4,1.3
			s-0.4,1.3-0.5,2c-0.2,0.8-0.4,1.8-0.6,2.8s-0.4,2-0.6,3c-0.2,1-0.3,2-0.4,2.9c-0.1,0.9-0.2,1.7-0.2,2.4c0,0.4,0,0.7,0.1,0.9
			s0.1,0.4,0.1,0.6c0.1,0.2,0.1,0.4,0.2,0.6c-0.6,0-1.1-0.1-1.4-0.3c-0.3-0.2-0.5-0.5-0.6-0.9c-0.1-0.4-0.2-0.9-0.2-1.6
			c0-1.6,0.2-3.2,0.5-4.9c0.4-1.7,0.8-3.5,1.2-5.3c-0.4,0.6-0.8,1.2-1.2,2c-0.4,0.8-0.8,1.6-1.2,2.4c-0.4,0.9-0.8,1.7-1.2,2.5
			c-0.4,0.8-0.7,1.6-1,2.3c-0.3,0.7-0.5,1.3-0.7,1.8c-0.1,0-0.2,0.1-0.3,0.1c0,0-0.1,0-0.2,0c-0.5,0-0.8-0.3-0.9-0.9
			c-0.1-0.6-0.2-1.4-0.2-2.4c0-0.5,0-1.1,0-1.8c0-0.6,0-1.3,0.1-1.9c0-0.7,0-1.3,0.1-1.9c0-0.6,0-1.3,0-1.8c0-0.2,0-0.4,0-0.6
			s0-0.4,0-0.6c-1.1,2.5-2,4.6-2.7,6.4s-1.4,3.2-1.9,4.3c-0.5,1.1-1,1.9-1.4,2.4C84.8,29,84.4,29.2,83.9,29.2z"/>
		<path d="M102.9,28.3c-0.9,0-1.6-0.2-2.1-0.7c-0.5-0.5-0.7-1.1-0.7-1.8c0-0.6,0.2-1.3,0.5-2c0.3-0.7,0.7-1.3,1.3-2
			c0.5-0.6,1.1-1.1,1.8-1.5c0.6-0.4,1.3-0.6,1.9-0.6c0.4,0,0.7,0.1,1,0.3c0.3,0.2,0.5,0.6,0.5,1.1c0,0.5-0.2,1-0.5,1.5
			c-0.3,0.5-0.7,0.9-1.2,1.2c-0.5,0.4-1.1,0.7-1.7,0.9c-0.6,0.2-1.2,0.4-1.9,0.5c0,0.1,0,0.1,0,0.2c0,0.1,0,0.2,0,0.3
			c0,0.1,0,0.2,0,0.4c0,0.2,0.1,0.4,0.2,0.6c0.1,0.2,0.3,0.4,0.5,0.5c0.2,0.1,0.5,0.2,0.9,0.2c0.6,0,1.2-0.2,1.8-0.5
			c0.6-0.3,1.2-0.8,1.7-1.3s1-1.2,1.3-1.8l0.4,0.3c-0.4,0.8-0.9,1.6-1.5,2.2c-0.6,0.6-1.3,1.1-2,1.5
			C104.4,28.2,103.6,28.3,102.9,28.3z M102,24.5c0.4,0,0.8-0.2,1.2-0.4c0.4-0.2,0.9-0.5,1.3-0.8s0.8-0.7,1-1.1
			c0.3-0.4,0.4-0.8,0.4-1.2c0-0.2,0-0.3-0.1-0.3c-0.1-0.1-0.1-0.1-0.3-0.1c-0.3,0-0.7,0.1-1,0.3c-0.4,0.2-0.7,0.5-1,0.9
			c-0.3,0.4-0.6,0.8-0.9,1.2C102.4,23.7,102.1,24.1,102,24.5z"/>
		<path d="M108.8,28.4c-0.5,0-0.9-0.2-1.2-0.5c-0.3-0.3-0.5-0.8-0.5-1.4c0-0.5,0.1-1,0.3-1.6s0.5-1.1,0.9-1.7
			c0.4-0.6,0.8-1.1,1.3-1.5s1-0.8,1.6-1.1c0.6-0.3,1.1-0.4,1.7-0.4c0.6,0,1.1,0.2,1.5,0.5c0.4,0.3,0.6,0.7,0.6,1.2
			c0,0.4-0.1,0.7-0.4,0.8c-0.3,0.2-0.6,0.2-0.9,0.1c0-0.1,0.1-0.3,0.1-0.4c0-0.1,0-0.3,0-0.4c0-0.3-0.1-0.5-0.2-0.8
			c-0.1-0.2-0.4-0.3-0.7-0.3c-0.4,0-0.8,0.1-1.2,0.4c-0.4,0.3-0.8,0.6-1.2,1s-0.7,0.9-1,1.4c-0.3,0.5-0.5,1-0.7,1.5
			s-0.3,0.9-0.3,1.3c0,0.4,0.2,0.7,0.5,0.7c0.3,0,0.7-0.2,1.1-0.5c0.4-0.3,0.8-0.7,1.2-1.2c0.4-0.5,0.8-1,1.1-1.5s0.7-0.9,0.9-1.3
			c0-0.1,0.1-0.1,0.2-0.1c0.1,0,0.2,0,0.3,0.1c0.2,0,0.3,0.1,0.5,0.2c0.1,0.1,0.2,0.2,0.2,0.4c0,0.1-0.1,0.3-0.2,0.5
			c-0.1,0.2-0.3,0.5-0.4,0.7c-0.2,0.3-0.3,0.5-0.4,0.8s-0.2,0.5-0.2,0.7c0,0.2,0,0.4,0.1,0.5c0.1,0.2,0.3,0.2,0.5,0.2
			c0.3,0,0.8-0.2,1.4-0.7c0.6-0.5,1.2-1.3,1.9-2.5l0.4,0.4c-0.3,0.8-0.7,1.4-1.2,2c-0.5,0.6-1,1-1.5,1.4c-0.5,0.3-1,0.5-1.6,0.5
			c-0.6,0-1-0.2-1.3-0.5s-0.4-0.8-0.5-1.2c0,0,0,0,0-0.1c0,0,0,0,0,0c-0.6,0.7-1.1,1.2-1.5,1.6C109.8,28.2,109.3,28.4,108.8,28.4z"
			/>
		<path d="M118.4,28c-0.3,0-0.5-0.1-0.8-0.2c-0.3-0.1-0.5-0.3-0.7-0.6c-0.2-0.3-0.3-0.6-0.3-1.1c0-0.5,0.1-1,0.3-1.6
			c0.2-0.6,0.5-1.1,0.9-1.7c0.4-0.6,0.8-1.1,1.3-1.6c0.5-0.5,1.1-0.9,1.6-1.2s1.2-0.4,1.7-0.4c0.3,0,0.6,0.1,0.8,0.2
			c0.2,0.1,0.3,0.3,0.3,0.5c0,0.1,0,0.2,0,0.2c0,0.1-0.1,0.2-0.2,0.2c-0.1-0.1-0.2-0.1-0.3-0.2c-0.1,0-0.3-0.1-0.4-0.1
			c-0.5,0-0.9,0.1-1.3,0.4s-0.8,0.6-1.2,1c-0.4,0.4-0.7,0.8-0.9,1.3c-0.3,0.5-0.5,0.9-0.6,1.4c-0.1,0.4-0.2,0.8-0.2,1.1
			c0,0.3,0.1,0.5,0.2,0.6s0.3,0.2,0.5,0.2c0.4,0,0.8-0.2,1.4-0.7c0.5-0.4,1.1-1.1,1.6-1.9s1.1-1.8,1.5-3c0.3-0.8,0.6-1.6,1-2.4
			s0.7-1.6,1-2.4s0.7-1.5,1-2.1c0.3-0.6,0.6-1.1,0.9-1.4s0.6-0.5,0.8-0.5c0.2,0,0.3,0.1,0.4,0.2c0.1,0.1,0.2,0.3,0.2,0.5
			c0,0.2-0.1,0.6-0.3,1.1c-0.2,0.5-0.5,1.2-0.9,1.9c-0.4,0.7-0.7,1.5-1.2,2.4c-0.4,0.8-0.8,1.7-1.2,2.6c-0.4,0.9-0.7,1.8-0.9,2.6
			c-0.2,0.9-0.3,1.7-0.3,2.4c0,0.3,0,0.6,0.1,0.7c0.1,0.1,0.2,0.2,0.3,0.2c0.3,0,0.7-0.1,1-0.4c0.4-0.2,0.8-0.6,1.2-1.1
			c0.4-0.5,0.7-1,1.1-1.7l0.4,0.3c-0.3,0.8-0.7,1.4-1.2,2c-0.5,0.6-1,1-1.5,1.4c-0.5,0.3-1.1,0.5-1.6,0.5c-0.6,0-1-0.2-1.2-0.5
			c-0.2-0.4-0.3-0.8-0.3-1.3c0-0.2,0-0.5,0.1-0.7c0-0.2,0.1-0.5,0.1-0.7c-0.4,0.6-0.9,1.2-1.4,1.7s-1,0.9-1.4,1.2
			C119.2,27.9,118.8,28,118.4,28z"/>
		<path d="M128.6,28.1c-0.6,0-1.1-0.2-1.3-0.6c-0.2-0.4-0.3-0.9-0.3-1.4c0-0.4,0.1-0.9,0.2-1.4c0.1-0.5,0.3-0.9,0.6-1.3
			c0.2-0.4,0.5-0.7,0.8-1c0.3-0.2,0.6-0.4,0.9-0.4c0.1,0,0.2,0,0.3,0.1s0.2,0.1,0.3,0.2c-0.2,0.2-0.3,0.5-0.5,0.8
			c-0.2,0.3-0.3,0.6-0.5,1c-0.1,0.3-0.3,0.7-0.3,1c-0.1,0.4-0.1,0.7-0.1,1c0,0.3,0.1,0.5,0.2,0.7c0.1,0.2,0.3,0.3,0.6,0.3
			c0.3,0,0.6-0.1,1-0.5c0.4-0.3,0.7-0.6,1.1-1c-0.4-0.4-0.8-0.9-1-1.3c-0.2-0.5-0.3-1.1-0.3-1.8c0-0.3,0.1-0.6,0.2-1
			c0.1-0.4,0.4-0.7,0.7-1s0.8-0.4,1.3-0.4c0.6,0,1,0.2,1.3,0.5s0.4,0.7,0.4,1.2c0,0.5-0.1,1.1-0.4,1.7c-0.3,0.6-0.6,1.3-1,1.8
			c0.2,0.1,0.4,0.1,0.6,0.1c0.2,0,0.5,0,0.8-0.1c0.3-0.1,0.6-0.3,0.9-0.5c0.3-0.2,0.5-0.5,0.7-0.9l0.4,0.3c-0.3,0.7-0.7,1.2-1.2,1.6
			s-1,0.5-1.5,0.5c-0.2,0-0.4,0-0.5-0.1c-0.2,0-0.4-0.1-0.5-0.1c-0.5,0.6-1,1-1.6,1.5S129.2,28.1,128.6,28.1z M131.9,24.9
			c0.3-0.5,0.6-1,0.9-1.6c0.2-0.6,0.4-1.1,0.4-1.6c0-0.3,0-0.6-0.1-0.7c-0.1-0.1-0.2-0.2-0.4-0.2c-0.3,0-0.5,0.2-0.8,0.6
			s-0.4,0.9-0.4,1.4c0,0.3,0.1,0.7,0.2,1.1C131.6,24.3,131.7,24.6,131.9,24.9z"/>
		<path d="M141.2,28.2c-0.5,0-0.8-0.2-1-0.6c-0.2-0.4-0.3-0.9-0.3-1.5c0-0.2,0-0.4,0-0.7s0-0.5,0-0.7c-0.3,0.5-0.6,1.1-1,1.6
			c-0.3,0.5-0.7,0.9-1.1,1.3c-0.4,0.3-0.8,0.5-1.2,0.5c-0.5,0-0.9-0.2-1.2-0.6c-0.3-0.4-0.5-0.9-0.5-1.5c0-0.4,0.1-0.9,0.2-1.4
			c0.1-0.5,0.3-1,0.5-1.6s0.4-0.9,0.6-1.3s0.4-0.5,0.6-0.5c0.1,0,0.3,0.1,0.5,0.2c0.2,0.1,0.4,0.3,0.5,0.4c-0.2,0.2-0.3,0.6-0.6,1
			c-0.2,0.5-0.4,1-0.6,1.5c-0.2,0.5-0.2,1-0.2,1.4c0,0.1,0,0.2,0,0.4c0,0.2,0.1,0.4,0.2,0.6c0.1,0.2,0.2,0.3,0.4,0.3
			c0.3,0,0.6-0.2,1-0.6s0.7-0.9,1-1.4c0.3-0.6,0.7-1.2,1-1.8c0.1-0.6,0.2-1,0.3-1.3s0.2-0.4,0.3-0.5c0.1-0.1,0.2-0.1,0.3-0.1
			c0.3,0,0.5,0.1,0.6,0.2c0.1,0.1,0.2,0.3,0.2,0.5c0,0,0,0.1,0,0.2c0,0.1,0,0.2-0.1,0.2c-0.1,0.3-0.2,0.6-0.2,1.1s-0.1,0.9-0.2,1.3
			s-0.1,0.9-0.1,1.4c0,0.3,0,0.6,0.1,0.8c0,0.2,0.1,0.3,0.3,0.3c0.2,0,0.4-0.1,0.7-0.4c0.3-0.2,0.5-0.6,0.8-0.9s0.6-0.8,0.8-1.3
			c0.3-0.5,0.5-0.9,0.7-1.4c0-0.7,0.1-1.3,0.2-1.7c0.1-0.4,0.2-0.6,0.4-0.8c0.2-0.1,0.4-0.2,0.6-0.2c0.3,0,0.6,0.1,0.7,0.3
			c0.1,0.2,0.2,0.4,0.2,0.6c0,0.1,0,0.3-0.1,0.4c-0.1,0.1-0.1,0.2-0.2,0.3c-0.1,0.2-0.2,0.5-0.3,0.8c-0.1,0.3-0.1,0.7-0.1,1.1
			c0,0.2,0,0.5,0.1,0.7c0,0.2,0.1,0.4,0.3,0.6c0.1,0.2,0.3,0.2,0.6,0.2s0.5-0.1,0.8-0.3c0.3-0.2,0.5-0.6,0.9-1.3l0.4,0.3
			c-0.3,0.7-0.7,1.2-1.1,1.5c-0.4,0.3-0.8,0.4-1.1,0.4c-0.5,0-0.9-0.2-1.2-0.5s-0.6-0.7-0.8-1.2c-0.4,0.6-0.7,1.2-1.2,1.8
			c-0.4,0.6-0.9,1.1-1.3,1.5S141.6,28.2,141.2,28.2z"/>
		<path d="M150.8,28.5c-0.7,0-1.3-0.1-1.7-0.4c-0.4-0.3-0.7-0.7-0.9-1.1c-0.2-0.4-0.3-0.9-0.3-1.4c0-0.4,0.1-0.7,0.2-0.9
			s0.3-0.4,0.4-0.5c0.2-0.1,0.3-0.2,0.5-0.2c0.1-0.1,0.3-0.1,0.3-0.2c0.3-0.4,0.7-0.8,1.1-1.3c0.4-0.5,0.7-1,1-1.6v-0.2
			c0-0.6,0.1-1,0.3-1.2c0.2-0.2,0.4-0.3,0.7-0.3c0.2,0,0.3,0,0.4,0.1s0.1,0.2,0.1,0.3c0,0.1,0,0.2-0.1,0.3s-0.1,0.3-0.1,0.5
			c0,0.4,0.1,0.9,0.3,1.4s0.4,1.1,0.6,1.7c0.2,0.6,0.3,1.2,0.3,1.8c0,0.2,0,0.3,0,0.5c0,0.1,0,0.3-0.1,0.4c0.4-0.1,0.9-0.4,1.3-0.7
			s0.8-0.9,1.2-1.6l0.3,0.2c-0.3,0.8-0.7,1.4-1.2,1.9s-1.1,0.8-1.8,0.9c-0.2,0.6-0.6,1-1.1,1.3C152,28.3,151.4,28.5,150.8,28.5z
			 M150.6,27.6c0.3,0,0.5-0.1,0.8-0.2c0.2-0.1,0.4-0.3,0.6-0.6c-0.6-0.1-1.1-0.3-1.6-0.7s-0.8-0.7-1.1-1c-0.2,0-0.3,0.2-0.3,0.6
			c0,0.5,0.1,0.9,0.4,1.3S150.1,27.6,150.6,27.6z M152.1,26.1c0-0.1,0-0.2,0.1-0.3c0-0.1,0-0.2,0-0.3c0-0.6-0.1-1.3-0.3-1.9
			c-0.2-0.6-0.3-1.2-0.5-1.9c-0.3,0.4-0.5,0.9-0.9,1.4s-0.7,0.9-0.9,1.2c0.2,0.4,0.6,0.7,1,1.1C151.1,25.7,151.6,26,152.1,26.1z"/>
	</g>
</g>
<g id="Layer_2">
	<path class="st4" d="M43.2,20.9c0,11.4-9.2,20.6-20.6,20.6S2,32.3,2,20.9C2,9.5,11.2,0.3,22.6,0.3C34,0.3,43.2,9.5,43.2,20.9"/>
	<path class="st5" d="M32.8,20.4c0.4,1.2-0.9,2-1.8,2.5c-1,0.6-2,1-3.1,1.4c-2.1,0.7-4.2,1.1-6.3,2c-1.6,0.7-3.2,1.7-3.9,3.5
		c-0.4,1.2,0,2.5,1,3.2c2.3,1.6,5.8,0.8,7.2-1.5c1.1-1.8,0.7-4,0-5.9c-0.8-2.5-2.3-4.8-3.5-7.2c-1-2-2.4-4.9-1.8-7.2
		c0.3-1,1.3-1.7,2.3-1.8c1.4-0.1,1.6,1.3,1.4,2.4c-0.4,2.7-2.9,5.1-5.5,5.8c-1.8,0.5-4.8,0.2-5.4-2c-0.2-0.8-1.4-0.5-1.2,0.3
		c1.1,4,6.5,3.5,9.3,1.8c2-1.3,3.7-3.5,4-5.9c0.2-1.7-0.4-3.5-2.3-3.7c-1.8-0.1-3.3,1-3.9,2.7c-0.7,2,0.4,4.6,1.1,6.4
		c0.9,2.3,2.3,4.4,3.3,6.7c1,2,2.1,4.7,0.9,6.8c-0.9,1.6-3.2,2-4.9,1.4c-2.4-0.9-0.4-3.3,0.9-4.1c2.5-1.5,5.5-1.8,8.2-2.8
		c2-0.7,5.7-2.5,4.8-5.2C33.7,19.3,32.5,19.6,32.8,20.4"/>
	<g>
		<path d="M48.6,26.5V15.5h1.3v9.8h5.2v1.1H48.6z"/>
		<path d="M56.5,17.2v-1.3h1.3v1.3H56.5z M58.6,26.5c-0.4,0-0.7-0.1-1-0.2c-0.3-0.1-0.6-0.4-0.7-0.7c-0.2-0.3-0.3-0.7-0.3-1.3v-5.6
			h1.2v5.6c0,0.5,0.1,0.9,0.3,1c0.2,0.2,0.4,0.2,0.7,0.2c0.1,0,0.3,0,0.4,0s0.3-0.1,0.5-0.1l0.1,0.8c-0.2,0.1-0.4,0.1-0.6,0.2
			C59,26.5,58.7,26.5,58.6,26.5z"/>
		<path d="M63.6,26.6c-0.6,0-1.2-0.1-1.6-0.4c-0.5-0.3-0.8-0.7-1.1-1.2s-0.4-1.1-0.4-1.8c0-0.9,0.2-1.7,0.5-2.4
			c0.4-0.7,0.9-1.2,1.5-1.6s1.4-0.6,2.3-0.6c0.5,0,1,0.1,1.5,0.2c0.5,0.1,0.9,0.3,1.2,0.5v5.1c0,0.3,0.1,0.6,0.3,0.8
			c0.2,0.2,0.4,0.3,0.7,0.3l-0.3,1.1c-0.4,0-0.8-0.1-1.1-0.4c-0.3-0.2-0.5-0.5-0.6-0.9c-0.3,0.4-0.6,0.8-1.2,1
			C64.8,26.5,64.2,26.6,63.6,26.6z M63.8,25.6c0.5,0,0.9-0.1,1.3-0.3c0.4-0.2,0.7-0.5,0.9-0.9s0.3-0.8,0.3-1.3v-3.1
			c-0.2-0.1-0.4-0.1-0.6-0.2c-0.3,0-0.5-0.1-0.8-0.1c-0.6,0-1.1,0.1-1.6,0.4c-0.5,0.3-0.8,0.7-1.1,1.2c-0.3,0.5-0.4,1.1-0.4,1.8
			c0,0.7,0.2,1.3,0.6,1.8C62.7,25.4,63.2,25.6,63.8,25.6z"/>
		<path d="M73.1,26.5c-0.9,0-1.5-0.2-1.9-0.5c-0.4-0.4-0.6-1-0.6-1.8v-4.6H69v-0.8h1.6v-2l1.2-0.4v2.4h2.5v0.8h-2.5v4.7
			c0,0.5,0.1,0.8,0.3,1c0.2,0.2,0.6,0.3,1.1,0.3c0.1,0,0.3,0,0.4,0s0.4-0.1,0.6-0.1s0.3-0.1,0.5-0.1l0.1,0.9
			c-0.2,0.1-0.5,0.2-0.9,0.2S73.3,26.5,73.1,26.5z"/>
		<path d="M80.3,26.5V15.5h1.8l3.6,7l0.6,1.5l0.6-1.6l3.6-7h1.8v10.9H91v-9.4l-0.5,1.2l-3.7,7.4h-0.9L82,18.2L81.6,17v9.5H80.3z"/>
		<path d="M98.2,26.6c-0.8,0-1.4-0.2-2-0.5s-1.1-0.8-1.4-1.4c-0.3-0.6-0.5-1.3-0.5-2.1c0-0.7,0.2-1.4,0.5-2c0.3-0.6,0.8-1.1,1.3-1.5
			c0.6-0.4,1.3-0.6,2.1-0.6c0.5,0,1,0.1,1.4,0.3s0.7,0.5,0.9,0.8c0.2,0.3,0.3,0.7,0.3,1.1c0,0.6-0.2,1.1-0.7,1.5s-1.1,0.7-1.8,0.9
			c-0.8,0.2-1.6,0.4-2.6,0.5c0.1,0.4,0.3,0.7,0.5,1s0.6,0.5,0.9,0.7c0.3,0.2,0.7,0.2,1.1,0.2c0.5,0,1-0.1,1.4-0.3s0.8-0.4,1-0.7
			l0.6,0.8c-0.4,0.4-0.8,0.7-1.4,0.9C99.4,26.5,98.8,26.6,98.2,26.6z M95.6,22.8c0.8-0.1,1.5-0.2,2-0.4c0.6-0.2,1.1-0.4,1.4-0.6
			c0.3-0.3,0.5-0.6,0.5-1c0-0.3-0.1-0.6-0.4-0.8c-0.2-0.2-0.6-0.3-1.1-0.3c-0.4,0-0.8,0.1-1.2,0.3c-0.4,0.2-0.7,0.5-1,0.9
			c-0.3,0.4-0.4,0.9-0.4,1.5C95.6,22.5,95.6,22.7,95.6,22.8z"/>
		<path d="M105.4,26.6c-0.6,0-1.2-0.1-1.6-0.4c-0.5-0.3-0.8-0.7-1.1-1.2c-0.3-0.5-0.4-1.1-0.4-1.8c0-0.9,0.2-1.7,0.5-2.4
			c0.4-0.7,0.9-1.2,1.5-1.6s1.4-0.6,2.3-0.6c0.5,0,1,0.1,1.5,0.2s0.9,0.3,1.2,0.5v5.1c0,0.3,0.1,0.6,0.3,0.8
			c0.2,0.2,0.4,0.3,0.7,0.3l-0.3,1.1c-0.4,0-0.8-0.1-1.1-0.4c-0.3-0.2-0.5-0.5-0.6-0.9c-0.3,0.4-0.6,0.8-1.2,1
			C106.5,26.5,106,26.6,105.4,26.6z M105.6,25.6c0.5,0,0.9-0.1,1.3-0.3c0.4-0.2,0.7-0.5,0.9-0.9s0.3-0.8,0.3-1.3v-3.1
			c-0.2-0.1-0.4-0.1-0.6-0.2c-0.3,0-0.5-0.1-0.8-0.1c-0.6,0-1.1,0.1-1.6,0.4c-0.5,0.3-0.8,0.7-1.1,1.2c-0.3,0.5-0.4,1.1-0.4,1.8
			c0,0.7,0.2,1.3,0.6,1.8C104.5,25.4,105,25.6,105.6,25.6z"/>
		<path d="M114.8,26.6c-0.7,0-1.3-0.2-1.9-0.5c-0.5-0.3-0.9-0.8-1.2-1.4c-0.3-0.6-0.4-1.3-0.4-2.1c0-0.8,0.1-1.5,0.4-2.1
			c0.3-0.6,0.7-1.1,1.2-1.5c0.5-0.4,1.2-0.5,1.9-0.5c0.5,0,0.9,0.1,1.4,0.2c0.4,0.1,0.8,0.4,1.2,0.8v-4.4l1.2-0.1v8.5
			c0,0.6,0,1,0.1,1.4c0.1,0.4,0.1,0.6,0.2,0.9c0.1,0.2,0.2,0.4,0.3,0.6l-1.2,0.2c-0.1-0.2-0.3-0.4-0.4-0.7c-0.1-0.3-0.2-0.5-0.2-0.8
			c-0.2,0.5-0.6,0.8-1.1,1.1C116,26.5,115.4,26.6,114.8,26.6z M115,25.6c0.6,0,1.1-0.1,1.4-0.4c0.4-0.3,0.6-0.6,0.8-1.1
			c0.2-0.5,0.2-1,0.2-1.6v-1.6c-0.3-0.4-0.6-0.7-1.1-0.9c-0.4-0.2-0.9-0.3-1.3-0.3c-0.6,0-1,0.1-1.4,0.4c-0.4,0.3-0.6,0.6-0.8,1.1
			c-0.2,0.5-0.3,1-0.3,1.5c0,0.6,0.1,1.1,0.3,1.5c0.2,0.4,0.5,0.8,0.8,1C114.1,25.5,114.5,25.6,115,25.6z"/>
		<path d="M124.5,26.6c-0.8,0-1.5-0.2-2.1-0.5c-0.6-0.3-1.1-0.8-1.4-1.4c-0.3-0.6-0.5-1.3-0.5-2.1c0-0.8,0.2-1.5,0.5-2.1
			c0.3-0.6,0.8-1.1,1.4-1.4s1.3-0.5,2.1-0.5c0.8,0,1.5,0.2,2.1,0.5s1,0.8,1.4,1.4c0.3,0.6,0.5,1.3,0.5,2.1c0,0.8-0.2,1.5-0.5,2.1
			c-0.3,0.6-0.8,1.1-1.4,1.4S125.3,26.6,124.5,26.6z M124.5,25.6c0.8,0,1.4-0.3,1.9-0.8c0.5-0.5,0.7-1.3,0.7-2.1
			c0-0.9-0.2-1.6-0.7-2.2c-0.5-0.5-1.1-0.8-1.9-0.8c-0.8,0-1.5,0.3-2,0.8c-0.5,0.5-0.7,1.3-0.7,2.2c0,0.9,0.2,1.6,0.7,2.1
			C123,25.3,123.7,25.6,124.5,25.6z"/>
		<path d="M131.9,26.5l-2.7-7.7h1.3l1.9,5.6c0,0.1,0.1,0.2,0.1,0.4c0,0.1,0.1,0.3,0.1,0.4c0-0.1,0.1-0.2,0.1-0.3
			c0-0.1,0.1-0.2,0.1-0.3l2-5.6h1.2l1.9,5.6c0,0.1,0.1,0.2,0.1,0.4c0,0.1,0.1,0.3,0.1,0.4c0-0.1,0.1-0.2,0.1-0.4
			c0-0.1,0.1-0.3,0.1-0.4l1.8-5.5h1.3l-2.8,7.7h-1.2l-2.1-6.2l-2.2,6.2H131.9z"/>
		<path d="M145.1,26.6c-0.6,0-1.1-0.1-1.6-0.2s-0.8-0.3-1.1-0.5l0.4-1.1c0.3,0.2,0.6,0.4,1,0.5c0.4,0.1,0.8,0.2,1.2,0.2
			c0.4,0,0.8-0.1,1.1-0.3c0.3-0.2,0.4-0.4,0.4-0.8c0-0.3-0.1-0.5-0.3-0.7s-0.5-0.3-0.8-0.5c-0.3-0.1-0.6-0.3-1-0.4
			c-0.3-0.2-0.7-0.3-1-0.5c-0.3-0.2-0.6-0.4-0.8-0.7c-0.2-0.3-0.3-0.6-0.3-1c0-0.6,0.2-1.1,0.7-1.5c0.5-0.4,1.1-0.6,1.8-0.6
			c0.5,0,0.9,0.1,1.3,0.2s0.8,0.3,1.1,0.4l-0.3,1c-0.3-0.2-0.7-0.3-1-0.4s-0.7-0.2-1-0.2c-0.4,0-0.8,0.1-1,0.3
			c-0.3,0.2-0.4,0.4-0.4,0.7c0,0.2,0.1,0.4,0.3,0.6c0.2,0.2,0.5,0.3,0.8,0.5c0.3,0.1,0.6,0.3,1,0.4c0.3,0.1,0.7,0.3,1,0.5
			c0.3,0.2,0.6,0.4,0.7,0.7c0.2,0.3,0.3,0.6,0.3,1c0,0.7-0.3,1.2-0.7,1.6C146.5,26.4,145.9,26.6,145.1,26.6z"/>
	</g>
</g>
</svg>
