<?xml version="1.0" encoding="UTF-8"?>
<svg id="Layer_1" data-name="Layer 1" xmlns="http://www.w3.org/2000/svg" version="1.1" viewBox="0 0 109 17.6">
  <defs>
    <style>
      .cls-1 {
        fill: #fff;
        stroke-width: 0px;
      }
    </style>
  </defs>
  <path class="cls-1" d="M11.4,17c-.5,0-1.1-.1-1.7-.3-.6-.2-1.3-.5-2-.8-.7-.3-1.3-.6-2-.8-.4.4-.7.7-1.1.9-.4.2-.8.3-1.3.3s-.9-.1-1.3-.3c-.4-.2-.6-.5-.8-.8s-.3-.6-.3-.8.1-.5.4-.7.7-.3,1.3-.3.8,0,1.2.1.9.2,1.4.3c.3-.6.6-1.2.9-2s.5-1.6.8-2.4.5-1.7.8-2.4c-.7-.2-1.2-.6-1.6-1-.4-.4-.6-.9-.6-1.3s0-.6.2-.8.3-.5.6-.7c.3-.2.6-.3.9-.3-.2.2-.3.5-.3.8,0,.3,0,.5,0,.7,0,.5,0,.8.3,1.2s.5.6.8.8c.3-.8.6-1.6.9-2.3s.6-1.4,1-2c.4-.6.8-1,1.2-1.4.5-.3,1-.5,1.6-.5s.7,0,1,.2c.4.1.7.4.9.7.3.3.4.8.4,1.4s-.1,1-.3,1.5c-.2.5-.5,1.1-1,1.6-.4.5-1,.9-1.7,1.2s-1.5.5-2.5.5h-.2c-.3.8-.6,1.6-.9,2.5s-.6,1.6-.9,2.4c-.3.8-.7,1.4-1.1,2,.6.1,1.2.3,1.8.5.7.2,1.3.4,2,.5.7.1,1.2.2,1.8.2s.6,0,.9-.1c.3,0,.6-.2.9-.4-.3.8-.6,1.4-1,1.7-.4.4-.9.5-1.5.5ZM3.1,15.5c.4,0,.7,0,.9-.2.2-.2.4-.4.7-.6-.4-.1-.8-.3-1.2-.4-.4-.1-.7-.2-1-.2s-.5,0-.6.1c-.1.1-.2.2-.2.4,0,.2.1.4.4.6.3.2.6.3,1,.3ZM9.6,6.4c.6,0,1.2-.2,1.6-.6s.9-.8,1.2-1.3c.3-.5.6-1,.8-1.5.2-.5.3-1,.3-1.3s0-.6-.2-.8c-.1-.1-.3-.2-.5-.2-.4,0-.8.3-1.1.8s-.7,1.2-1,2c-.3.8-.7,1.8-1,2.8Z"/>
  <path class="cls-1" d="M16.5,15.8c-.6,0-1.1-.2-1.4-.6s-.5-.8-.5-1.3,0-.7.2-1.2.3-1,.5-1.5.4-1.1.7-1.5c.3-.5.5-.9.9-1.2.3-.3.6-.4.9-.4s.3,0,.4.2c.1.1.2.3.2.4s-.1.5-.3.8-.5.8-.8,1.3c-.3.5-.5,1-.8,1.5-.2.5-.3,1-.3,1.5s0,.8.2.9c.2.1.4.2.7.2.5,0,1-.2,1.5-.7.6-.5,1.1-1.3,1.7-2.5l.3.3c-.5,1.2-1.1,2.2-1.9,2.9-.7.7-1.5,1-2.4,1ZM19,6.3c-.3,0-.5,0-.7-.2-.2-.1-.3-.3-.3-.6s.2-.6.5-.9c.4-.2.7-.4,1.1-.4s.5,0,.6.2.3.3.3.6-.1.6-.5.8c-.3.3-.7.4-1,.4Z"/>
  <path class="cls-1" d="M21.1,16.1c-.5,0-.9-.1-1.2-.5-.3-.3-.5-.8-.5-1.4s.1-1,.3-1.6.5-1.1.9-1.7c.4-.6.8-1.1,1.3-1.5s1-.8,1.6-1.1c.6-.3,1.1-.4,1.7-.4s1.1.1,1.5.5.6.7.6,1.2-.1.6-.4.8-.6.2-1,.1c0-.1,0-.2,0-.4s0-.3,0-.4c0-.3,0-.5-.2-.8s-.4-.3-.7-.3-.8.1-1.2.4c-.4.3-.8.6-1.2,1-.4.4-.7.9-1,1.4-.3.5-.5,1-.7,1.5s-.2.9-.2,1.3.2.7.5.7.7-.2,1.1-.5.8-.7,1.2-1.2.8-1,1.1-1.5c.4-.5.7-.9.9-1.3,0,0,.1-.1.2-.1,0,0,.2,0,.3,0,.2,0,.3.1.5.2.1.1.2.2.2.4s0,.3-.2.5-.3.5-.4.7c-.2.3-.3.5-.4.8s-.2.5-.2.8,0,.4.1.5.3.2.5.2c.3,0,.8-.2,1.4-.8s1.2-1.3,1.9-2.5l.4.4c-.3.8-.7,1.4-1.2,2-.5.6-1,1-1.5,1.4s-1,.5-1.6.5-1-.2-1.3-.6c-.3-.4-.4-.8-.5-1.2h0c-.6.6-1.1,1.1-1.5,1.5-.4.4-.9.6-1.5.6Z"/>
  <path class="cls-1" d="M35.7,17c0-.2.3-.7.6-1.4s.8-1.8,1.4-3,1.3-2.7,2.1-4.5,1.7-3.7,2.7-5.8c0-.1,0-.2.1-.4s0-.2,0-.3,0-.2-.1-.3-.2-.1-.5-.1c-.6,0-1.1.2-1.4.5-.4.4-.6.8-.8,1.3s-.3,1-.3,1.5,0,.3,0,.4,0,.4,0,.6c-.3,0-.6,0-.8-.3-.2-.2-.4-.4-.5-.8-.1-.3-.2-.6-.2-.8,0-.5.1-.9.4-1.3.3-.4.6-.8,1-1.1.4-.3.9-.6,1.4-.8.5-.2,1-.3,1.5-.3s1,.1,1.3.4c.4.3.6.8.8,1.6.2.8.3,1.8.3,3.2s0,1.8,0,2.8-.1,1.8-.2,2.6c0,.8-.1,1.5-.1,2.1.3-.8.6-1.7,1-2.6.4-.9.9-1.9,1.3-2.8s1-1.8,1.4-2.6c.5-.8.9-1.5,1.2-2.1.4-.6.7-1.1.8-1.4.2-.3.4-.5.5-.7.2-.2.4-.2.6-.2s.5,0,.9.2c-.1.3-.3.7-.4,1.3-.2.6-.3,1.3-.5,2-.2.8-.4,1.8-.6,2.8s-.4,2-.6,3-.3,2-.4,2.9c0,.9-.2,1.7-.2,2.4s0,.6,0,.9,0,.4.2.6c0,.2.1.4.2.6-.6,0-1.1,0-1.4-.3s-.5-.5-.6-.9c-.1-.4-.2-.9-.2-1.6,0-1.6.2-3.2.5-4.9.4-1.7.8-3.5,1.2-5.3-.4.6-.8,1.2-1.2,2-.4.8-.8,1.6-1.2,2.4-.4.9-.8,1.7-1.2,2.5-.4.8-.7,1.6-1,2.3-.3.7-.5,1.3-.7,1.8-.1,0-.2,0-.3,0s-.1,0-.2,0c-.5,0-.8-.3-.9-.9s-.2-1.4-.2-2.4,0-1.1,0-1.8c0-.6,0-1.3,0-1.9,0-.7,0-1.3,0-1.9,0-.6,0-1.3,0-1.8s0-.4,0-.6,0-.4,0-.6c-1.1,2.5-2,4.6-2.7,6.3s-1.4,3.2-1.9,4.3c-.5,1.1-1,1.9-1.4,2.4-.4.5-.9.8-1.3.8Z"/>
  <path class="cls-1" d="M54.6,16c-.9,0-1.6-.2-2.1-.7-.5-.5-.7-1.1-.7-1.8s.2-1.3.5-2c.3-.7.7-1.3,1.3-1.9s1.1-1.1,1.8-1.5,1.3-.6,1.9-.6.7,0,1,.3c.3.2.5.6.5,1.1s-.2,1-.5,1.5c-.3.5-.7.9-1.2,1.2s-1.1.7-1.7.9c-.6.2-1.2.4-1.9.4,0,0,0,.1,0,.2s0,.2,0,.3,0,.2,0,.4c0,.2,0,.4.2.6,0,.2.3.4.5.5s.5.2.9.2c.6,0,1.2-.2,1.8-.5.6-.3,1.2-.8,1.7-1.3.5-.5,1-1.2,1.3-1.8l.4.3c-.4.8-.9,1.6-1.5,2.2s-1.2,1.1-2,1.5c-.7.3-1.4.5-2.2.5ZM53.8,12.2c.4,0,.8-.2,1.2-.4s.9-.5,1.3-.8.8-.7,1-1.1c.3-.4.4-.8.4-1.2s0-.3,0-.3c0,0-.2,0-.3,0-.3,0-.7.1-1,.4-.3.2-.7.5-1,.9s-.6.8-.9,1.2c-.3.4-.5.9-.6,1.3Z"/>
  <path class="cls-1" d="M60.5,16.1c-.5,0-.9-.1-1.2-.5-.3-.3-.5-.8-.5-1.4s.1-1,.3-1.6c.2-.6.5-1.1.9-1.7.4-.6.8-1.1,1.3-1.5s1-.8,1.6-1.1c.6-.3,1.2-.4,1.7-.4s1.1.1,1.5.5.6.7.6,1.2-.1.6-.4.8c-.3.2-.6.2-.9.1,0-.1,0-.2,0-.4s0-.3,0-.4c0-.3,0-.5-.2-.8-.1-.2-.3-.3-.7-.3s-.8.1-1.2.4c-.4.3-.8.6-1.2,1s-.7.9-1,1.4c-.3.5-.5,1-.7,1.5s-.2.9-.2,1.3.2.7.5.7.7-.2,1.1-.5.8-.7,1.2-1.2.8-1,1.1-1.5.7-.9.9-1.3c0,0,0-.1.2-.1,0,0,.2,0,.3,0,.2,0,.3.1.4.2s.2.2.2.4,0,.3-.2.5-.3.5-.4.7c-.2.3-.3.5-.4.8s-.2.5-.2.8,0,.4.2.5.3.2.5.2c.3,0,.8-.2,1.4-.8s1.2-1.3,1.9-2.5l.4.4c-.3.8-.7,1.4-1.2,2-.5.6-1,1-1.5,1.4-.5.3-1,.5-1.6.5s-1-.2-1.3-.6-.4-.8-.5-1.2h0c-.6.6-1.1,1.1-1.5,1.5-.5.4-1,.6-1.5.6Z"/>
  <path class="cls-1" d="M70.1,15.8c-.3,0-.5,0-.8-.2s-.5-.3-.7-.6-.3-.6-.3-1.1.1-1,.3-1.6c.2-.6.5-1.1.9-1.7.4-.6.8-1.1,1.3-1.6.5-.5,1.1-.9,1.6-1.2s1.2-.4,1.7-.4.6,0,.8.2c.2.1.3.3.3.5s0,.1,0,.2,0,.2-.2.2c0,0-.2-.1-.3-.2s-.3,0-.4,0c-.5,0-.9.1-1.3.4s-.8.6-1.2,1-.7.9-.9,1.3c-.3.5-.5.9-.6,1.4-.1.4-.2.8-.2,1.1s0,.5.2.6.3.2.5.2c.4,0,.8-.2,1.3-.7.5-.4,1.1-1.1,1.6-1.9s1.1-1.8,1.5-3c.3-.8.6-1.6,1-2.4s.7-1.6,1-2.4.7-1.5,1-2.1c.3-.6.6-1.1.9-1.4s.6-.5.8-.5.3,0,.4.2c.1.1.2.3.2.4s-.1.6-.3,1.1c-.2.5-.5,1.2-.9,1.9-.4.7-.7,1.5-1.2,2.4-.4.8-.8,1.7-1.2,2.6s-.7,1.8-.9,2.6c-.2.9-.3,1.7-.3,2.4s0,.6,0,.7.2.2.3.2c.3,0,.7-.1,1-.4s.8-.6,1.2-1.1c.4-.5.8-1,1.1-1.7l.4.3c-.3.8-.7,1.4-1.2,2s-1,1.1-1.5,1.4c-.6.3-1.1.5-1.6.5s-1-.2-1.2-.6c-.2-.4-.3-.8-.3-1.3s0-.4,0-.7c0-.2,0-.5.1-.7-.4.6-.9,1.2-1.4,1.7s-1,.9-1.4,1.2c-.4.3-.9.4-1.3.4Z"/>
  <path class="cls-1" d="M80.4,15.8c-.6,0-1.1-.2-1.3-.6s-.3-.9-.3-1.4,0-.9.2-1.4.3-.9.6-1.3c.2-.4.5-.7.8-1,.3-.2.6-.4.9-.4s.2,0,.3,0,.2,0,.3.2c-.2.2-.3.5-.5.8-.2.3-.3.6-.5,1-.2.3-.3.7-.3,1,0,.4-.1.7-.1,1s0,.5.2.7c0,.2.3.3.6.3s.6-.1,1-.4c.4-.3.7-.6,1.1-1-.4-.4-.8-.9-1-1.3-.2-.5-.3-1.1-.3-1.8s0-.6.2-1,.4-.7.7-1,.8-.4,1.3-.4,1,.2,1.3.5.4.7.4,1.2-.1,1.1-.4,1.7c-.3.6-.6,1.2-1,1.8.2,0,.4.1.6.1s.5,0,.8-.1c.3-.1.6-.3.9-.5s.5-.5.7-.9l.4.3c-.3.7-.7,1.2-1.2,1.6s-1,.5-1.5.5-.4,0-.6,0c-.2,0-.3,0-.5-.1-.5.6-1,1.1-1.6,1.5s-1.2.6-1.9.6ZM83.7,12.6c.3-.5.6-1,.9-1.6s.4-1.1.4-1.6,0-.6-.2-.7c0-.1-.2-.2-.4-.2-.3,0-.5.2-.8.6s-.4.9-.4,1.4,0,.6.2,1.1c.1.4.3.7.4,1Z"/>
  <path class="cls-1" d="M92.9,15.9c-.5,0-.8-.2-1-.6-.2-.4-.3-.9-.3-1.5,0-.2,0-.4,0-.7s0-.5,0-.7c-.3.5-.6,1.1-1,1.6s-.7.9-1.1,1.3c-.4.3-.8.5-1.2.5s-.9-.2-1.2-.6-.5-.9-.5-1.5,0-.9.2-1.4.3-1.1.5-1.6.4-.9.6-1.3.4-.5.6-.5.3,0,.5.2c.2.1.4.3.4.4-.2.2-.3.6-.6,1s-.4,1-.6,1.5c-.2.5-.2,1-.2,1.4s0,.2,0,.4c0,.2,0,.4.2.6s.2.2.4.2c.3,0,.6-.2,1-.6s.7-.9,1-1.4c.3-.6.7-1.2,1-1.8.1-.6.2-1,.3-1.3s.2-.4.3-.5c0,0,.2-.1.3-.1.3,0,.5,0,.6.2.2.1.2.2.2.4s0,0,0,.2c0,.1,0,.2,0,.2,0,.3-.2.6-.2,1.1s-.1.9-.2,1.3,0,.9,0,1.4,0,.6,0,.8.2.3.3.3.4-.1.7-.4.5-.6.8-.9.6-.8.8-1.3.5-.9.8-1.4c0-.7,0-1.3.2-1.7s.2-.6.4-.8.4-.2.6-.2c.3,0,.6.1.7.3.1.2.2.4.2.6s0,.3-.1.4-.1.2-.2.3c0,.2-.2.5-.3.8,0,.3-.1.7-.1,1.1s0,.5,0,.7c0,.2.1.4.3.6.1.1.3.2.6.2s.5-.1.8-.3c.3-.2.5-.6.8-1.3l.4.3c-.3.7-.7,1.2-1.1,1.5s-.8.4-1.1.4-.8-.2-1.2-.5-.6-.8-.8-1.2c-.3.6-.7,1.2-1.2,1.8-.4.6-.9,1.1-1.3,1.5s-.9.5-1.4.5Z"/>
  <path class="cls-1" d="M102.5,16.2c-.7,0-1.3-.1-1.7-.4-.4-.3-.7-.6-.9-1.1-.2-.4-.3-.9-.3-1.4s0-.7.2-.9.2-.4.4-.5c.2-.1.3-.2.5-.2.2,0,.2-.1.3-.2.3-.4.7-.8,1.1-1.3.4-.5.7-1,1-1.6v-.2c0-.6,0-1,.3-1.2s.4-.3.7-.3.3,0,.4.1.1.2.1.3c0,0,0,.2,0,.3s0,.3,0,.5c0,.4,0,.9.3,1.4s.4,1.1.6,1.7.3,1.2.3,1.9,0,.3,0,.5c0,.1,0,.3,0,.4.4-.1.9-.4,1.3-.7s.8-.9,1.2-1.6l.2.2c-.3.8-.7,1.4-1.2,1.9s-1.1.8-1.8.9c-.2.6-.6,1-1.1,1.3-.5.3-1.1.4-1.7.4ZM102.4,15.3c.3,0,.5,0,.8-.2s.4-.3.6-.6c-.6-.1-1.1-.4-1.6-.7s-.8-.6-1.1-1c-.2,0-.3.2-.3.6s.1.9.4,1.3.6.6,1.2.6ZM103.9,13.8c0-.1,0-.2,0-.4,0-.1,0-.2,0-.3,0-.6,0-1.2-.2-1.9s-.3-1.2-.5-1.9c-.2.4-.6.9-.9,1.4s-.7.9-.9,1.2c.2.4.6.7,1,1.1.4.3.9.6,1.5.7Z"/>
</svg>