<?xml version="1.0" encoding="utf-8"?>
<!-- Generator: Adobe Illustrator 27.9.0, SVG Export Plug-In . SVG Version: 6.00 Build 0)  -->
<svg version="1.1" id="Layer_1" xmlns="http://www.w3.org/2000/svg" xmlns:xlink="http://www.w3.org/1999/xlink" x="0px" y="0px"
	 viewBox="0 0 114.1 17.6" style="enable-background:new 0 0 114.1 17.6;" xml:space="preserve" fill="#ffffff">
<g>
	<path d="M11.44,16.95c-0.52,0-1.1-0.11-1.74-0.32c-0.64-0.21-1.31-0.46-1.98-0.76c-0.68-0.29-1.34-0.57-1.98-0.84
		C5.37,15.41,5,15.71,4.59,15.92c-0.41,0.21-0.84,0.32-1.3,0.32c-0.49,0-0.91-0.11-1.27-0.33c-0.36-0.22-0.63-0.48-0.82-0.79
		s-0.28-0.59-0.28-0.84c0-0.28,0.13-0.53,0.38-0.74s0.7-0.31,1.34-0.31c0.38,0,0.79,0.04,1.25,0.12s0.92,0.18,1.4,0.3
		c0.32-0.56,0.62-1.22,0.89-1.97s0.54-1.55,0.81-2.38c0.27-0.83,0.53-1.65,0.8-2.45c-0.7-0.24-1.24-0.57-1.62-1
		C5.79,5.42,5.6,4.99,5.6,4.56C5.6,4.28,5.67,4,5.81,3.73c0.14-0.27,0.34-0.5,0.61-0.69C6.68,2.85,7,2.75,7.36,2.75
		c-0.18,0.22-0.3,0.48-0.35,0.76c-0.05,0.28-0.07,0.5-0.07,0.67c0,0.46,0.1,0.85,0.31,1.18s0.47,0.57,0.78,0.76
		c0.27-0.8,0.55-1.56,0.85-2.3c0.3-0.74,0.64-1.39,1.01-1.95c0.37-0.57,0.78-1.02,1.24-1.35C11.59,0.17,12.1,0,12.68,0
		c0.32,0,0.66,0.07,1.02,0.2c0.36,0.13,0.66,0.36,0.92,0.68c0.26,0.32,0.39,0.78,0.39,1.39c0,0.48-0.1,0.99-0.3,1.53
		s-0.52,1.07-0.96,1.56c-0.43,0.5-0.99,0.91-1.67,1.24s-1.5,0.51-2.47,0.54c-0.03,0-0.06,0-0.09,0c-0.04,0-0.07,0-0.09,0
		C9.15,7.95,8.87,8.77,8.58,9.6c-0.29,0.83-0.61,1.62-0.94,2.37c-0.34,0.76-0.7,1.43-1.09,2.02c0.55,0.15,1.15,0.33,1.82,0.52
		c0.66,0.2,1.33,0.36,2,0.49c0.66,0.13,1.25,0.2,1.75,0.2c0.34,0,0.65-0.04,0.93-0.12c0.29-0.08,0.59-0.19,0.91-0.35
		c-0.28,0.78-0.63,1.35-1.04,1.69C12.5,16.78,12.01,16.95,11.44,16.95z M3.08,15.46c0.36,0,0.66-0.08,0.88-0.24
		c0.22-0.16,0.45-0.36,0.67-0.6c-0.43-0.15-0.84-0.28-1.22-0.39c-0.38-0.1-0.71-0.16-0.99-0.16c-0.27,0-0.46,0.05-0.58,0.15
		c-0.12,0.1-0.18,0.22-0.18,0.36c0,0.22,0.14,0.43,0.42,0.61C2.37,15.37,2.7,15.46,3.08,15.46z M9.65,6.45
		c0.62-0.04,1.16-0.24,1.64-0.59s0.88-0.77,1.22-1.26c0.34-0.49,0.59-0.99,0.77-1.5c0.17-0.51,0.26-0.96,0.26-1.33
		c0-0.36-0.07-0.61-0.21-0.75c-0.14-0.13-0.3-0.2-0.48-0.2c-0.41,0-0.79,0.26-1.15,0.78c-0.36,0.52-0.71,1.2-1.04,2.05
		C10.32,4.49,9.99,5.43,9.65,6.45z"/>
	<path d="M16.48,15.75c-0.62,0-1.08-0.18-1.39-0.55s-0.46-0.8-0.46-1.32c0-0.32,0.06-0.73,0.17-1.22s0.27-1,0.47-1.54
		c0.2-0.54,0.44-1.05,0.7-1.52c0.27-0.48,0.55-0.86,0.86-1.17c0.31-0.3,0.62-0.45,0.92-0.45c0.17,0,0.31,0.05,0.44,0.16
		c0.13,0.1,0.19,0.26,0.19,0.45c0,0.18-0.11,0.46-0.33,0.82c-0.22,0.36-0.47,0.78-0.76,1.26c-0.29,0.48-0.54,0.97-0.76,1.48
		c-0.22,0.51-0.33,1-0.33,1.46c0,0.45,0.08,0.75,0.24,0.89c0.16,0.15,0.4,0.22,0.7,0.22c0.48,0,0.99-0.24,1.55-0.71
		c0.56-0.48,1.14-1.31,1.74-2.5l0.31,0.34c-0.49,1.23-1.11,2.19-1.87,2.88C18.16,15.41,17.34,15.75,16.48,15.75z M18.95,6.28
		c-0.27,0-0.51-0.07-0.72-0.2c-0.22-0.13-0.33-0.34-0.33-0.62c0-0.34,0.18-0.62,0.55-0.86c0.36-0.24,0.74-0.36,1.13-0.36
		c0.25,0,0.47,0.06,0.64,0.17c0.17,0.11,0.26,0.32,0.26,0.61S20.33,5.6,20,5.87C19.68,6.14,19.33,6.28,18.95,6.28z"/>
	<path d="M21.1,16.11c-0.46,0-0.86-0.15-1.21-0.46c-0.34-0.31-0.51-0.77-0.51-1.39c0-0.49,0.11-1.02,0.34-1.6s0.53-1.14,0.92-1.7
		c0.39-0.56,0.84-1.07,1.34-1.52s1.04-0.82,1.62-1.1c0.57-0.28,1.15-0.42,1.72-0.42c0.6,0,1.11,0.15,1.53,0.46
		c0.42,0.31,0.63,0.71,0.63,1.22c0,0.38-0.13,0.65-0.4,0.82c-0.27,0.17-0.58,0.22-0.95,0.15c0.03-0.13,0.05-0.25,0.07-0.38
		s0.03-0.26,0.03-0.4c0-0.28-0.06-0.53-0.17-0.76s-0.35-0.34-0.71-0.34c-0.39,0-0.79,0.13-1.2,0.4c-0.41,0.27-0.79,0.61-1.17,1.04
		c-0.37,0.43-0.7,0.9-1,1.41c-0.29,0.51-0.52,1.01-0.69,1.5c-0.17,0.49-0.25,0.93-0.25,1.32c0,0.45,0.16,0.67,0.48,0.67
		c0.32,0,0.68-0.16,1.07-0.47c0.39-0.31,0.79-0.71,1.19-1.19c0.4-0.48,0.78-0.96,1.14-1.46c0.36-0.5,0.68-0.92,0.94-1.27
		c0.04-0.07,0.1-0.11,0.17-0.11c0.06,0.01,0.16,0.05,0.33,0.09c0.16,0.05,0.31,0.12,0.45,0.22c0.14,0.1,0.21,0.22,0.21,0.38
		c0,0.14-0.06,0.32-0.18,0.54c-0.12,0.22-0.26,0.46-0.42,0.71c-0.16,0.26-0.3,0.52-0.42,0.78c-0.12,0.26-0.18,0.51-0.18,0.75
		c0,0.18,0.05,0.35,0.15,0.51s0.26,0.24,0.48,0.24c0.34,0,0.81-0.25,1.42-0.75c0.61-0.5,1.23-1.34,1.86-2.53l0.4,0.4
		c-0.34,0.76-0.74,1.42-1.21,2.01c-0.47,0.58-0.96,1.04-1.48,1.37c-0.52,0.33-1.04,0.49-1.58,0.49c-0.57,0-1-0.18-1.28-0.55
		c-0.28-0.36-0.43-0.76-0.46-1.18c0-0.03,0-0.05,0-0.06c0-0.01,0-0.03,0-0.04c-0.56,0.67-1.07,1.2-1.54,1.6
		C22.13,15.91,21.63,16.11,21.1,16.11z"/>
	<path d="M31.15,16.09c-0.62,0-1.11-0.18-1.49-0.55s-0.57-0.92-0.57-1.66c0-0.57,0.11-1.29,0.33-2.14c0.22-0.85,0.49-1.74,0.83-2.65
		c-0.1-0.03-0.21-0.05-0.35-0.07C29.77,9,29.64,8.96,29.52,8.9V8.25c0.22,0.03,0.41,0.05,0.56,0.06s0.3,0.03,0.45,0.04
		c0.29-0.74,0.61-1.46,0.96-2.15c0.34-0.69,0.69-1.31,1.03-1.86c0.34-0.55,0.67-0.98,0.98-1.29c0.31-0.32,0.58-0.47,0.82-0.47
		c0.14,0,0.27,0.05,0.4,0.16c0.13,0.11,0.19,0.26,0.19,0.45c0,0.28-0.14,0.68-0.43,1.2c-0.29,0.52-0.64,1.12-1.06,1.82
		c-0.42,0.69-0.83,1.43-1.22,2.21c0.11,0,0.22,0,0.34,0c0.11,0,0.22,0,0.31,0c0.62,0,1.17-0.01,1.67-0.03c0.5-0.02,1-0.06,1.52-0.12
		v0.69c-0.77,0.07-1.48,0.13-2.12,0.17c-0.64,0.04-1.26,0.07-1.85,0.08c-0.04,0-0.08,0-0.13,0s-0.08,0-0.13,0
		c-0.29,0.69-0.55,1.39-0.77,2.11c-0.22,0.72-0.33,1.42-0.33,2.11c0,0.57,0.09,0.98,0.27,1.22c0.18,0.24,0.47,0.36,0.86,0.36
		c0.7,0,1.42-0.32,2.15-0.96c0.74-0.64,1.38-1.5,1.92-2.59l0.29,0.21c-0.36,0.83-0.82,1.58-1.35,2.25c-0.54,0.67-1.12,1.2-1.75,1.59
		C32.48,15.89,31.83,16.09,31.15,16.09z"/>
	<path d="M40.65,16.95c0.07-0.21,0.28-0.69,0.62-1.44c0.34-0.75,0.8-1.75,1.39-3s1.27-2.74,2.07-4.46c0.8-1.72,1.69-3.66,2.67-5.82
		c0.06-0.11,0.1-0.23,0.14-0.36s0.05-0.24,0.05-0.34c0-0.14-0.04-0.25-0.13-0.34s-0.25-0.13-0.48-0.13c-0.59,0-1.07,0.18-1.44,0.54
		c-0.37,0.36-0.64,0.79-0.82,1.31c-0.18,0.52-0.26,1.03-0.26,1.53c0,0.13,0.01,0.27,0.02,0.44s0.04,0.36,0.06,0.57
		c-0.34,0-0.61-0.1-0.83-0.3c-0.22-0.2-0.38-0.45-0.49-0.76c-0.11-0.3-0.17-0.58-0.17-0.85c0-0.45,0.13-0.88,0.39-1.3
		c0.26-0.42,0.6-0.8,1.02-1.14c0.42-0.34,0.88-0.61,1.4-0.81C46.35,0.1,46.86,0,47.37,0c0.52,0,0.96,0.14,1.32,0.43
		c0.36,0.29,0.64,0.81,0.84,1.55c0.2,0.75,0.29,1.82,0.29,3.22c0,0.91-0.03,1.83-0.09,2.76c-0.06,0.93-0.13,1.8-0.2,2.61
		c-0.07,0.81-0.11,1.5-0.11,2.08c0.28-0.83,0.63-1.7,1.04-2.64c0.41-0.93,0.86-1.85,1.33-2.77s0.95-1.78,1.41-2.59
		c0.46-0.81,0.88-1.52,1.25-2.13c0.37-0.61,0.65-1.06,0.85-1.35c0.2-0.31,0.37-0.54,0.53-0.69c0.15-0.15,0.36-0.23,0.63-0.23
		c0.2,0,0.5,0.08,0.92,0.23c-0.13,0.27-0.27,0.69-0.44,1.27s-0.35,1.26-0.55,2.03c-0.21,0.84-0.42,1.76-0.63,2.76
		s-0.4,2.01-0.57,3.03c-0.17,1.02-0.3,1.99-0.41,2.91c-0.1,0.92-0.16,1.73-0.16,2.43c0,0.36,0.02,0.65,0.05,0.86s0.08,0.4,0.15,0.56
		c0.06,0.16,0.14,0.37,0.22,0.62c-0.6,0-1.06-0.09-1.38-0.27c-0.32-0.18-0.53-0.47-0.63-0.87c-0.11-0.4-0.16-0.93-0.16-1.59
		c0-1.55,0.18-3.19,0.54-4.9c0.36-1.71,0.77-3.48,1.25-5.3c-0.39,0.56-0.8,1.23-1.22,2c-0.42,0.77-0.83,1.58-1.24,2.44
		c-0.41,0.85-0.79,1.7-1.16,2.53c-0.36,0.83-0.69,1.6-0.97,2.31c-0.28,0.71-0.5,1.3-0.65,1.77c-0.13,0.04-0.21,0.07-0.26,0.08
		c-0.05,0.01-0.11,0.02-0.18,0.02c-0.49,0-0.8-0.3-0.93-0.89c-0.13-0.59-0.2-1.41-0.2-2.45c0-0.55,0.01-1.13,0.02-1.75
		c0.01-0.62,0.04-1.26,0.06-1.91c0.03-0.65,0.05-1.3,0.06-1.94c0.01-0.64,0.02-1.26,0.02-1.85c0-0.21,0-0.42-0.01-0.63
		s-0.01-0.41-0.01-0.61c-1.06,2.48-1.96,4.6-2.7,6.35s-1.36,3.19-1.88,4.28c-0.52,1.1-1,1.9-1.43,2.42
		C41.58,16.69,41.12,16.95,40.65,16.95z"/>
	<path d="M59.63,16.04c-0.9,0-1.58-0.24-2.07-0.72c-0.48-0.48-0.72-1.09-0.72-1.82c0-0.62,0.16-1.27,0.47-1.96
		c0.32-0.69,0.74-1.34,1.27-1.95c0.53-0.61,1.12-1.1,1.76-1.48c0.64-0.38,1.29-0.57,1.93-0.57c0.36,0,0.71,0.09,1.04,0.28
		c0.33,0.19,0.49,0.56,0.49,1.12c0,0.53-0.15,1.03-0.46,1.49c-0.31,0.46-0.72,0.88-1.24,1.24c-0.52,0.36-1.09,0.66-1.71,0.89
		c-0.62,0.23-1.25,0.38-1.88,0.45c-0.01,0.06-0.02,0.12-0.03,0.18c-0.01,0.06-0.01,0.17-0.01,0.3c0,0.07,0.01,0.19,0.03,0.37
		c0.02,0.17,0.08,0.36,0.18,0.56c0.1,0.2,0.26,0.36,0.48,0.5c0.22,0.14,0.53,0.21,0.92,0.21c0.59,0,1.18-0.17,1.77-0.49
		c0.59-0.33,1.15-0.77,1.68-1.31s0.96-1.16,1.31-1.83l0.42,0.34c-0.38,0.84-0.86,1.58-1.46,2.21c-0.6,0.63-1.25,1.12-1.97,1.47
		C61.12,15.87,60.39,16.04,59.63,16.04z M58.75,12.24c0.36-0.04,0.77-0.17,1.22-0.38c0.45-0.21,0.88-0.48,1.29-0.8
		s0.75-0.68,1.02-1.06c0.27-0.38,0.4-0.77,0.4-1.17c0-0.15-0.03-0.26-0.08-0.31c-0.06-0.06-0.15-0.08-0.27-0.08
		c-0.32,0-0.66,0.12-1.01,0.35c-0.35,0.23-0.69,0.53-1.03,0.9c-0.34,0.37-0.64,0.78-0.9,1.23C59.11,11.37,58.9,11.81,58.75,12.24z"
		/>
	<path d="M65.53,16.11c-0.46,0-0.86-0.15-1.21-0.46c-0.34-0.31-0.51-0.77-0.51-1.39c0-0.49,0.11-1.02,0.34-1.6s0.53-1.14,0.92-1.7
		c0.39-0.56,0.84-1.07,1.34-1.52s1.04-0.82,1.62-1.1c0.57-0.28,1.15-0.42,1.72-0.42c0.6,0,1.11,0.15,1.53,0.46
		c0.42,0.31,0.63,0.71,0.63,1.22c0,0.38-0.13,0.65-0.4,0.82c-0.27,0.17-0.58,0.22-0.95,0.15c0.03-0.13,0.05-0.25,0.07-0.38
		c0.02-0.13,0.03-0.26,0.03-0.4c0-0.28-0.06-0.53-0.17-0.76c-0.11-0.22-0.35-0.34-0.71-0.34c-0.39,0-0.79,0.13-1.2,0.4
		c-0.41,0.27-0.79,0.61-1.17,1.04s-0.7,0.9-1,1.41c-0.29,0.51-0.53,1.01-0.69,1.5s-0.25,0.93-0.25,1.32c0,0.45,0.16,0.67,0.48,0.67
		c0.32,0,0.68-0.16,1.07-0.47c0.39-0.31,0.79-0.71,1.19-1.19c0.4-0.48,0.78-0.96,1.14-1.46s0.68-0.92,0.95-1.27
		c0.04-0.07,0.1-0.11,0.17-0.11c0.06,0.01,0.17,0.05,0.33,0.09c0.16,0.05,0.31,0.12,0.45,0.22c0.14,0.1,0.21,0.22,0.21,0.38
		c0,0.14-0.06,0.32-0.18,0.54c-0.12,0.22-0.26,0.46-0.42,0.71c-0.16,0.26-0.3,0.52-0.42,0.78s-0.18,0.51-0.18,0.75
		c0,0.18,0.05,0.35,0.15,0.51c0.1,0.16,0.26,0.24,0.48,0.24c0.34,0,0.81-0.25,1.42-0.75c0.61-0.5,1.23-1.34,1.86-2.53l0.4,0.4
		c-0.34,0.76-0.74,1.42-1.21,2.01c-0.47,0.58-0.96,1.04-1.48,1.37c-0.52,0.33-1.04,0.49-1.58,0.49c-0.57,0-1-0.18-1.28-0.55
		s-0.43-0.76-0.46-1.18c0-0.03,0-0.05,0-0.06c0-0.01,0-0.03,0-0.04c-0.56,0.67-1.07,1.2-1.54,1.6
		C66.56,15.91,66.06,16.11,65.53,16.11z"/>
	<path d="M75.13,15.75c-0.27,0-0.54-0.07-0.81-0.2c-0.27-0.13-0.5-0.34-0.69-0.62c-0.19-0.28-0.28-0.64-0.28-1.07
		c0-0.46,0.11-0.98,0.34-1.55c0.22-0.57,0.53-1.15,0.91-1.72c0.39-0.57,0.83-1.1,1.34-1.58c0.51-0.48,1.05-0.86,1.63-1.15
		s1.16-0.44,1.74-0.44c0.32,0,0.57,0.05,0.76,0.16c0.18,0.11,0.27,0.28,0.27,0.51c0,0.07-0.01,0.15-0.04,0.24
		c-0.03,0.09-0.1,0.17-0.21,0.24c-0.06-0.08-0.15-0.14-0.29-0.18c-0.14-0.04-0.29-0.05-0.44-0.05c-0.46,0-0.9,0.13-1.32,0.39
		s-0.8,0.59-1.15,1c-0.35,0.41-0.66,0.85-0.91,1.32c-0.26,0.48-0.46,0.93-0.6,1.38c-0.14,0.44-0.21,0.82-0.21,1.14
		c0,0.27,0.06,0.48,0.17,0.64s0.28,0.24,0.5,0.24c0.38,0,0.83-0.22,1.35-0.66c0.53-0.44,1.06-1.08,1.62-1.91s1.05-1.83,1.5-2.99
		c0.31-0.8,0.63-1.61,0.97-2.45s0.67-1.63,1.01-2.4s0.67-1.46,1-2.06c0.33-0.6,0.64-1.08,0.94-1.44S84.79,0,85.04,0
		c0.15,0,0.29,0.06,0.41,0.18c0.12,0.12,0.18,0.27,0.18,0.45c0,0.24-0.12,0.62-0.35,1.14c-0.23,0.53-0.53,1.15-0.88,1.88
		c-0.36,0.73-0.74,1.52-1.16,2.36c-0.41,0.85-0.8,1.71-1.16,2.6c-0.36,0.89-0.65,1.76-0.88,2.62c-0.23,0.86-0.35,1.67-0.35,2.42
		c0,0.34,0.03,0.56,0.09,0.68c0.06,0.12,0.17,0.18,0.33,0.18c0.31,0,0.65-0.12,1.03-0.36c0.38-0.24,0.76-0.59,1.16-1.06
		c0.39-0.47,0.75-1.03,1.07-1.69l0.4,0.34c-0.31,0.77-0.7,1.45-1.18,2.04c-0.48,0.59-0.99,1.05-1.53,1.38
		c-0.55,0.33-1.08,0.49-1.62,0.49c-0.57,0-0.97-0.18-1.2-0.55c-0.22-0.36-0.34-0.79-0.34-1.28c0-0.22,0.02-0.45,0.05-0.68
		c0.04-0.23,0.07-0.46,0.12-0.68c-0.43,0.63-0.89,1.19-1.38,1.69s-0.96,0.88-1.42,1.17C75.99,15.61,75.55,15.75,75.13,15.75z"/>
	<path d="M85.37,15.79c-0.63,0-1.06-0.21-1.29-0.62c-0.23-0.41-0.35-0.86-0.35-1.35c0-0.45,0.07-0.91,0.21-1.38
		c0.14-0.47,0.33-0.91,0.58-1.31c0.25-0.41,0.52-0.73,0.82-0.98c0.3-0.24,0.61-0.37,0.91-0.37c0.1,0,0.21,0.02,0.35,0.05
		s0.23,0.09,0.28,0.16c-0.17,0.21-0.34,0.47-0.51,0.78c-0.18,0.31-0.34,0.63-0.48,0.98c-0.15,0.34-0.26,0.69-0.35,1.04
		c-0.08,0.35-0.13,0.67-0.13,0.97c0,0.28,0.05,0.51,0.16,0.69c0.1,0.18,0.29,0.27,0.56,0.27c0.27,0,0.58-0.15,0.96-0.45
		c0.37-0.3,0.72-0.65,1.06-1.04c-0.45-0.41-0.77-0.85-0.97-1.33c-0.2-0.48-0.29-1.07-0.29-1.75c0-0.29,0.07-0.63,0.22-1.01
		c0.15-0.38,0.38-0.71,0.71-0.99s0.77-0.42,1.33-0.42c0.6,0,1.03,0.17,1.27,0.5s0.37,0.73,0.37,1.2c0,0.52-0.14,1.1-0.41,1.74
		c-0.27,0.64-0.6,1.25-0.98,1.83c0.17,0.08,0.36,0.13,0.59,0.13c0.21,0,0.46-0.05,0.76-0.15c0.29-0.1,0.58-0.26,0.86-0.49
		c0.28-0.23,0.5-0.54,0.67-0.93l0.38,0.27c-0.31,0.71-0.72,1.24-1.23,1.56s-1.01,0.49-1.5,0.49c-0.18,0-0.36-0.02-0.55-0.05
		c-0.18-0.04-0.35-0.08-0.5-0.14c-0.48,0.56-1.02,1.05-1.64,1.47S86,15.79,85.37,15.79z M88.69,12.56c0.34-0.49,0.62-1.02,0.86-1.58
		c0.24-0.56,0.36-1.08,0.36-1.55c0-0.32-0.05-0.56-0.15-0.7c-0.1-0.15-0.25-0.22-0.44-0.22c-0.27,0-0.54,0.19-0.82,0.57
		s-0.42,0.85-0.42,1.43c0,0.29,0.05,0.65,0.16,1.07C88.35,11.99,88.5,12.32,88.69,12.56z"/>
	<path d="M97.91,15.92c-0.48,0-0.79-0.21-0.96-0.62c-0.16-0.41-0.26-0.91-0.28-1.48c0.01-0.17,0.02-0.4,0.03-0.69
		s0.02-0.54,0.03-0.74c-0.29,0.53-0.62,1.06-0.97,1.58c-0.35,0.52-0.72,0.95-1.11,1.28c-0.39,0.34-0.81,0.5-1.24,0.5
		c-0.48,0-0.87-0.21-1.18-0.64c-0.31-0.43-0.46-0.94-0.46-1.54c0-0.41,0.07-0.88,0.2-1.41c0.13-0.53,0.3-1.05,0.5-1.55
		s0.41-0.92,0.63-1.26s0.41-0.5,0.58-0.5c0.1,0,0.27,0.06,0.51,0.17c0.25,0.11,0.4,0.26,0.45,0.44c-0.15,0.22-0.34,0.57-0.56,1.03
		c-0.22,0.46-0.41,0.96-0.57,1.48c-0.16,0.52-0.24,1-0.24,1.44c0,0.08,0.01,0.23,0.03,0.43c0.02,0.2,0.08,0.39,0.18,0.56
		c0.1,0.17,0.24,0.25,0.44,0.25c0.31,0,0.63-0.19,0.98-0.57s0.69-0.85,1.04-1.43c0.35-0.57,0.68-1.16,0.99-1.76
		c0.13-0.6,0.23-1.04,0.32-1.3s0.17-0.43,0.26-0.5c0.09-0.07,0.2-0.11,0.33-0.11c0.27,0,0.47,0.05,0.62,0.16
		c0.15,0.1,0.22,0.25,0.22,0.45c0,0.01-0.01,0.07-0.04,0.18c-0.03,0.1-0.05,0.17-0.06,0.2c-0.08,0.29-0.16,0.65-0.23,1.06
		s-0.13,0.85-0.17,1.32s-0.06,0.94-0.06,1.42c0,0.34,0.02,0.6,0.06,0.79c0.04,0.19,0.15,0.28,0.32,0.28c0.2,0,0.42-0.12,0.68-0.36
		c0.26-0.24,0.53-0.55,0.82-0.94s0.57-0.82,0.84-1.29c0.27-0.47,0.52-0.94,0.75-1.42c0-0.73,0.05-1.28,0.16-1.66
		c0.11-0.38,0.25-0.64,0.42-0.79c0.17-0.15,0.37-0.22,0.58-0.22c0.35,0,0.59,0.11,0.72,0.34c0.13,0.22,0.2,0.41,0.2,0.57
		c0,0.14-0.04,0.27-0.11,0.39c-0.07,0.12-0.13,0.23-0.17,0.33c-0.1,0.21-0.19,0.46-0.28,0.76c-0.09,0.29-0.14,0.67-0.14,1.11
		c0,0.24,0.02,0.48,0.07,0.72c0.05,0.25,0.14,0.45,0.27,0.6c0.13,0.15,0.33,0.23,0.58,0.23s0.51-0.11,0.77-0.34
		c0.26-0.22,0.54-0.64,0.85-1.26l0.4,0.32c-0.31,0.73-0.66,1.23-1.05,1.5c-0.39,0.27-0.77,0.41-1.13,0.41
		c-0.46,0-0.85-0.17-1.18-0.5s-0.57-0.75-0.76-1.24c-0.35,0.6-0.74,1.2-1.17,1.8c-0.43,0.59-0.87,1.08-1.33,1.47
		S98.37,15.92,97.91,15.92z"/>
	<path d="M107.51,16.19c-0.7,0-1.26-0.14-1.69-0.43c-0.43-0.29-0.73-0.65-0.91-1.09c-0.18-0.44-0.27-0.89-0.27-1.35
		c0-0.41,0.06-0.72,0.17-0.95s0.25-0.39,0.42-0.49c0.17-0.11,0.33-0.19,0.47-0.24c0.15-0.06,0.25-0.12,0.33-0.19
		c0.35-0.36,0.71-0.79,1.08-1.27c0.37-0.48,0.69-1.02,0.96-1.61V8.36c0-0.56,0.09-0.96,0.28-1.19c0.19-0.23,0.41-0.35,0.66-0.35
		c0.17,0,0.29,0.04,0.37,0.13s0.12,0.18,0.14,0.29c0,0.08-0.02,0.18-0.05,0.29S109.4,7.81,109.4,8c0,0.42,0.1,0.9,0.3,1.44
		s0.41,1.11,0.61,1.71c0.2,0.6,0.3,1.22,0.3,1.85c0,0.17-0.01,0.32-0.02,0.46c-0.01,0.14-0.04,0.27-0.06,0.4
		c0.43-0.11,0.86-0.35,1.28-0.72s0.82-0.92,1.2-1.65l0.25,0.19c-0.27,0.8-0.65,1.44-1.16,1.92s-1.09,0.78-1.76,0.89
		c-0.22,0.57-0.59,1-1.1,1.28C108.73,16.05,108.15,16.19,107.51,16.19z M107.36,15.27c0.28,0,0.54-0.07,0.78-0.21
		c0.24-0.14,0.43-0.34,0.57-0.61c-0.57-0.13-1.09-0.35-1.55-0.67s-0.82-0.65-1.07-0.99c-0.2,0.04-0.29,0.23-0.29,0.57
		c0,0.46,0.13,0.9,0.4,1.3S106.84,15.27,107.36,15.27z M108.87,13.82c0.03-0.1,0.04-0.21,0.05-0.35c0.01-0.13,0.01-0.23,0.01-0.3
		c-0.01-0.63-0.1-1.25-0.25-1.87c-0.15-0.62-0.31-1.25-0.46-1.89c-0.25,0.43-0.55,0.9-0.88,1.41s-0.65,0.91-0.95,1.22
		c0.22,0.38,0.55,0.74,0.99,1.07C107.82,13.44,108.31,13.68,108.87,13.82z"/>
</g>
</svg>
